<?xml version="1.0" encoding="UTF-8"?>
<svg id="Layer_1" data-name="Layer 1" xmlns="http://www.w3.org/2000/svg" viewBox="0 0 242.57 106.56">
  <defs>
    <style>
      .cls-1 {
        fill: #fff;
        stroke-width: 0px;
      }
    </style>
  </defs>
  <g>
    <path class="cls-1" d="M126.45,29.01V8.84h7.9c2.65,0,4.68.54,6.09,1.62,1.41,1.08,2.12,2.68,2.12,4.78v.11c0,2.59-1.21,4.36-3.64,5.3l4.82,8.35h-6.09l-4.09-7.22h-1.35v7.22h-5.75ZM132.21,18.04h1.86c1.94,0,2.91-.82,2.91-2.45v-.11c0-1.52-.96-2.28-2.88-2.28h-1.89v4.85Z"/>
    <path class="cls-1" d="M145.55,29.01V8.84h13.93v4.46h-8.18v3.47h6.52v4.12h-6.52v3.67h8.63v4.46h-14.38Z"/>
    <path class="cls-1" d="M171.44,29.35c-3.44,0-6.06-.92-7.84-2.76-1.79-1.84-2.68-4.35-2.68-7.53v-.23c0-3.06.97-5.55,2.9-7.45,1.94-1.9,4.4-2.85,7.39-2.85,2.71,0,4.89.64,6.54,1.93,1.65,1.29,2.6,3.23,2.82,5.82h-5.95c-.23-2.12-1.36-3.19-3.39-3.19-1.31,0-2.35.5-3.1,1.5-.75,1-1.13,2.4-1.13,4.2v.23c0,1.82.38,3.23,1.13,4.22.75.99,1.81,1.48,3.19,1.48,1.03,0,1.88-.28,2.55-.83.67-.55,1.07-1.38,1.2-2.47h5.75c-.19,2.56-1.13,4.52-2.82,5.88-1.69,1.36-3.88,2.04-6.57,2.04Z"/>
    <path class="cls-1" d="M205.34,29.01V8.84h7.9c2.65,0,4.68.54,6.09,1.62,1.41,1.08,2.12,2.68,2.12,4.78v.11c0,2.59-1.21,4.36-3.64,5.3l4.82,8.35h-6.09l-4.09-7.22h-1.35v7.22h-5.75ZM211.1,18.04h1.86c1.94,0,2.91-.82,2.91-2.45v-.11c0-1.52-.96-2.28-2.88-2.28h-1.89v4.85Z"/>
    <path class="cls-1" d="M224.44,29.01V8.84h7.33c3.55,0,6.24.85,8.07,2.55,1.82,1.7,2.74,4.13,2.74,7.29v.22c0,3.18-.93,5.66-2.78,7.43-1.85,1.78-4.54,2.67-8.05,2.67h-7.3ZM230.25,24.55h1.33c1.71,0,2.96-.46,3.76-1.37.8-.91,1.2-2.31,1.2-4.19v-.23c0-1.92-.4-3.31-1.2-4.17-.8-.87-2.07-1.3-3.82-1.3h-1.27v11.25Z"/>
  </g>
  <g>
    <g>
      <path class="cls-1" d="M118.48,104.02c-.84-5.44-1.73-10.87-2.6-16.31-2.5-15.74-4.99-31.48-7.49-47.22-1.71-10.76-3.39-21.52-5.19-32.27-.73-4.37-4.21-7.5-8.64-8.13-4.16-.59-8.41,1.67-10.37,5.52-.42.83-.79,1.68-1.19,2.51-5.31,11.26-10.64,22.52-15.91,33.8-1.14,2.44-2.79,4.26-5.42,5.03-4.12,1.22-7.98-.62-9.97-4.84-5.61-11.89-11.17-23.8-16.76-35.71C32.83,1.92,28.75-.48,24.2.08c-4.71.58-8.06,3.8-8.93,8.85-1.18,6.85-2.21,13.73-3.3,20.6-2.63,16.54-5.27,33.08-7.9,49.61-1.31,8.24-2.63,16.48-3.93,24.73-.38,2.44-.14,2.68,2.38,2.68,3.19,0,6.38,0,9.57,0,2.43,0,2.65-.28,2.06-2.63-2.95-11.89,6.39-23.35,18.57-22.77,11.63.55,19.66,11.58,16.78,23.07-.47,1.88-.16,2.32,1.73,2.33,2.84.02,5.69,0,8.53,0,2.73,0,5.45,0,8.18,0,2.37,0,2.63-.34,2.04-2.66-2.92-11.51,5.81-22.76,17.68-22.76,11.94,0,20.61,11.26,17.66,22.93-.53,2.09-.24,2.48,1.9,2.49,3.02.01,6.03,0,9.05,0,2.29,0,2.54-.25,2.19-2.54Z"/>
      <path class="cls-1" d="M87.71,94.02c-3.16,0-5.45,2.32-5.42,5.51.03,3.03,2.41,5.35,5.46,5.32,3-.03,5.38-2.44,5.37-5.45,0-3.03-2.37-5.37-5.42-5.38Z"/>
      <path class="cls-1" d="M31.99,94.02c-3.15-.03-5.57,2.33-5.56,5.42.01,3,2.42,5.41,5.42,5.42,3.02,0,5.42-2.35,5.46-5.36.04-3.04-2.3-5.44-5.32-5.47Z"/>
    </g>
    <g>
      <path class="cls-1" d="M183.51,35.86c-16.85,0-30.56,13.18-30.56,29.37v41.33h22.07v-41.33c0-5.16,3.81-9.36,8.49-9.36s8.49,4.2,8.49,9.36v41.33h22.07v-41.33c0-16.19-13.71-29.37-30.56-29.37Z"/>
      <path class="cls-1" d="M135.54,35.86c-6.08,0-11.03,4.49-11.03,10.01v60.69h22.07v-60.69c0-5.52-4.95-10.01-11.03-10.01Z"/>
      <path class="cls-1" d="M231.48,35.86c-6.08,0-11.03,4.49-11.03,10.01v60.69h22.07v-60.69c0-5.52-4.95-10.01-11.03-10.01Z"/>
    </g>
  </g>
  <g>
    <path class="cls-1" d="M192.75,8.53c-5.75,0-10.41,4.66-10.41,10.41s4.66,10.41,10.41,10.41,10.41-4.66,10.41-10.41-4.66-10.41-10.41-10.41ZM188.52,18.94c0-2.33,1.89-4.22,4.22-4.22s4.22,1.89,4.22,4.22-1.89,4.22-4.22,4.22-4.22-1.89-4.22-4.22Z"/>
    <path class="cls-1" d="M194.34,18.94c0-.88-.71-1.59-1.59-1.59s-1.59.71-1.59,1.59.71,1.59,1.59,1.59,1.59-.71,1.59-1.59Z"/>
  </g>
</svg>